<svg version="1.1" id="Layer_1" xmlns="http://www.w3.org/2000/svg" xmlns:xlink="http://www.w3.org/1999/xlink" x="0px" y="0px"
	 viewBox="0 0 464 354.4" style="enable-background:new 0 0 464 354.4;" xml:space="preserve">
<style type="text/css">
	.crown1{fill:#DCCC24;}
	.crown2{fill:#D53727;}
</style>
<g class="crown">
	<polygon class="crown1" points="438.7,237.3 406,86.4 378.8,187.8 372,146.4 362.1,175 334,60.4 316.8,165.8 300,78.4 281.4,190.2 
		232,0 182.6,190.2 164,78.4 147.2,165.8 130,60.4 101.9,175 92,146.4 85.2,187.8 58,86.4 25.3,237.3 0,146.4 0,354.4 58,354.4 
		111,354.4 130,354.4 140,354.4 140,354.4 152,354.4 164,354.4 210,354.4 232,354.4 254,354.4 300,354.4 312,354.4 324,354.4 
		324,354.4 334,354.4 353,354.4 406,354.4 464,354.4 464,146.4 	"/>
	<polygon class="crown2" points="232,129.3 210,233.3 232,296.1 254,233.3 	"/>
</g>
</svg>
