<svg version="1.1" class="flowersvg" xmlns="http://www.w3.org/2000/svg" xmlns:xlink="http://www.w3.org/1999/xlink" x="0px" y="0px"
	 viewBox="0 0 326 903.1" style="enable-background:new 0 0 326 903.1;" xml:space="preserve">
	<polygon class="stem st0" points="168.3,156.2 149.2,903.1 168.3,903.1 187.4,903.1"/>
	<g id="leaves">
    <polygon class="leaf1 st0" points="39.2,785.4 26.3,768 70,726.1 109.2,755.8 109.9,755.9 171.3,801.9 52,851 21.9,798.5"/>
		<polygon class="leaf2 st0" points="19.8,477.9 5,457.9 55.1,409.8 100.1,444 100.9,444.1 171.3,496.8 34.6,553.1 0,492.9"/>
		<polygon class="leaf3 st0" points="307.5,600 321.3,581.3 274.4,536.4 232.4,568.3 231.6,568.4 165.8,617.7 293.7,670.5 326,614.1"/>
		<polygon class="leaf4 st0" points="262,357.2 271.2,344.7 240,314.8 212.1,336.1 211.6,336.2 167.8,368.9 252.8,404 274.3,366.5"/>
	</g>
	<g class="blossom">
		<path id="petals" class="st1" d="M324.6,136.1l-48.8-62.4L219.6,105l31.2-56.3L188.5,0l-20.2,19.9L148.2,0L85.8,48.7l31.3,56.3
			L60.8,73.7l-48.7,62.4L32,156.2l-19.9,20.2l48.7,62.3l56.3-31.2l-31.3,56.2l62.4,48.7l20.1-19.9l20.2,19.9l62.3-48.7l-31.2-56.2
			l56.2,31.2l48.8-62.3l-20-20.2L324.6,136.1z"/>
		<rect id="center" x="160.7" y="148.6" transform="matrix(0.7071 -0.7071 0.7071 0.7071 -61.1638 164.7616)" class="st2" width="15.3" height="15.3"/>
		<path id="lines" class="st3" d="M157.2,130.8l-2-18.6l6-46l-12,45.3L157.2,130.8z M182.1,112.2l-1.9,18.6l7.9-19.3l-12-45.3
			L182.1,112.2z M156.5,181.6l-7.9,19.4l12,45.3l-6-46L156.5,181.6z M181.4,200.3l-6,46l12-45.3l-7.9-19.4L181.4,200.3z M78.3,163.3
			l45.3,12l19.3-7.9l-18.6,1.9L78.3,163.3z M78.3,148.5l46-6l18.6,1.9l-19.3-7.9L78.3,148.5z M193.7,168l19.4,8l45.3-12l-46,6
			L193.7,168z M258.4,149.1l-45.3-12l-19.4,8l18.7-2L258.4,149.1z"/>
	</g>
</svg>
