<svg version="1.1" xmlns="http://www.w3.org/2000/svg" xmlns:xlink="http://www.w3.org/1999/xlink" x="0px" y="0px"
	 viewBox="0 0 543.8 776.2" style="enable-background:new 0 0 543.8 776.2;" xml:space="preserve">
<style type="text/css" class="skull">
	.c{fill:#FFFEF9;}
</style>
<g id="bones" class="bones">
	<g id="bone_1_">
		<g>
			<g>
				<polygon class="c" points="0,727.5 9.9,748.2 9.9,748.2 19.8,768.9 43.5,776.2 63.6,766.6 46.4,730.7 46.4,730.7 29.3,694.9 
					9.2,704.5 				"/>
				<polygon class="c" points="49.4,685.2 29.3,694.9 46.4,730.7 46.4,730.7 63.6,766.6 83.7,757 92.9,733.9 83,713.2 83,713.2 
					73.1,692.5 				"/>
			</g>
			
				<rect x="43.6" y="657.8" transform="matrix(-0.902 0.4318 -0.4318 -0.902 602.5914 1212.4043)" class="c" width="240" height="33.6"/>
		</g>
		<g>
			<g>
				<polygon class="c" points="524,476.7 533.9,497.3 533.9,497.3 543.8,518 534.7,541.1 514.6,550.7 497.4,514.8 497.4,514.8 
					480.2,479 500.3,469.4 				"/>
				<polygon class="c" points="460.1,488.6 480.2,479 497.4,514.8 497.4,514.8 514.6,550.7 494.5,560.3 470.8,553 460.9,532.3 
					460.9,532.3 451,511.6 				"/>
			</g>
			
				<rect x="260.2" y="554.1" transform="matrix(0.902 -0.4318 0.4318 0.902 -209.2717 220.1388)" class="c" width="240" height="33.6"/>
		</g>
	</g>
	<g id="bone_2_">
		<g>
			<g>
				<polygon class="c" points="543.8,727.5 533.9,748.2 533.9,748.2 524,768.9 500.3,776.2 480.2,766.6 497.4,730.7 497.4,730.7 
					514.6,694.9 534.7,704.5 				"/>
				<polygon class="c" points="494.5,685.2 514.6,694.9 497.4,730.7 497.4,730.7 480.2,766.6 460.1,757 451,733.9 460.9,713.2 
					460.9,713.2 470.8,692.5 				"/>
			</g>
			
				<rect x="260.2" y="657.8" transform="matrix(0.902 0.4318 -0.4318 0.902 328.5726 -98.0302)" class="c" width="240" height="33.6"/>
		</g>
		<g>
			<g>
				<polygon class="c" points="19.8,476.7 9.9,497.3 9.9,497.3 0,518 9.2,541.1 29.3,550.7 46.4,514.8 46.4,514.8 63.6,479 
					43.5,469.4 				"/>
				<polygon class="c" points="83.7,488.6 63.6,479 46.4,514.8 46.4,514.8 29.3,550.7 49.4,560.3 73.1,553 83,532.3 83,532.3 
					92.9,511.6 				"/>
			</g>
			
				<rect x="43.6" y="554.1" transform="matrix(-0.902 -0.4318 0.4318 -0.902 64.747 1156.6046)" class="c" width="240" height="33.6"/>
		</g>
	</g>
</g>
<path class="skull c" d="M373.9,0h-102h-102l-92,86.4v162l46,72v142l51,46h97h97l51-46v-142l46-72v-162L373.9,0z M271.9,204.4l34,68
	l-24,20l-10-18l-10,18l-24-20L271.9,204.4z M169.9,191.3v-28.9v-28.9l22-13.1l22,13.1v28.9v28.9l-22,13.1L169.9,191.3z M327.9,433.4
	h-56h-56l-24-28l24-28h56h56l24,28L327.9,433.4z M373.9,162.4v28.9l-22,13.1l-22-13.1v-28.9v-28.9l22-13.1l22,13.1V162.4z"/>
</svg>
