<?xml version="1.0" encoding="utf-8"?>
<!-- Generator: Adobe Illustrator 19.1.0, SVG Export Plug-In . SVG Version: 6.00 Build 0)  -->
<svg version="1.1" id="Layer_1" xmlns="http://www.w3.org/2000/svg" xmlns:xlink="http://www.w3.org/1999/xlink" x="0px" y="0px"
	 viewBox="0 0 355.5 138" style="enable-background:new 0 0 355.5 138;" xml:space="preserve">
<style type="text/css">
	.st0{fill:#FFFFFF;}
	.st1{clip-path:url(#SVGID_2_);fill:#CEEAE7;}
</style>
<g>
	<polygon class="st0" points="264,42 192,0 141,10.5 121.5,42 51,42 18,76.5 0,88.5 21,114 93,106.5 144,124.5 190.5,138 
		253.2,121.5 330,118.5 355.5,84 334.5,61.5 282.7,55.5 	"/>
	<g>
		<defs>
			<polygon id="SVGID_1_" points="264,42 192,0 141,10.5 121.5,42 51,42 18,76.5 0,88.5 21,114 93,106.5 144,124.5 190.5,138 
				253.2,121.5 330,118.5 355.5,84 334.5,61.5 282.7,55.5 			"/>
		</defs>
		<clipPath id="SVGID_2_">
			<use xlink:href="#SVGID_1_"  style="overflow:visible;"/>
		</clipPath>
		<polygon class="st1" points="379.5,82.5 327,82.5 315,69 282.7,82.5 232.5,82.5 232.5,60 225,37.5 195,24 157.5,39 130.5,53.2 
			87,61.5 61.5,53.2 52.5,69 25.5,82.5 15,90 15,126 -25.5,105 54,-10.5 207,-52.5 355.5,0 		"/>
	</g>
</g>
</svg>
