<?xml version="1.0" encoding="utf-8"?>
<!-- Generator: Adobe Illustrator 19.1.0, SVG Export Plug-In . SVG Version: 6.00 Build 0)  -->
<svg version="1.1" xmlns="http://www.w3.org/2000/svg" xmlns:xlink="http://www.w3.org/1999/xlink" x="0px" y="0px"
	 viewBox="0 0 904.6 711.6" style="enable-background:new 0 0 904.6 711.6;" xml:space="preserve">
<style type="text/css">
	.st0{fill:#8EC73F;}
	.st1{fill:#B2D569;}
	.st2{fill:#60BB46;}
</style>
<g id="Layer_1">
	<g>
		<polygon class="st0" points="211.6,711.6 318.6,344.2 290.7,227.9 358.1,341.9 300,711.6 		"/>
		<polygon class="st0" points="427.9,711.6 358.1,120.9 393,32.6 427.9,58.1 393,0 346.5,25.6 311.6,155.8 311.6,711.6 		"/>
		<polygon class="st0" points="507,711.6 486.5,430.2 530.2,334.9 455.8,427.9 486.5,711.6 		"/>
		<polygon class="st0" points="402.3,711.6 418.6,246.5 402.3,148.8 439.5,246.5 467.4,711.6 455.8,711.6 427.9,711.6 		"/>
		<polygon class="st0" points="530.2,711.6 590.7,448.8 711.6,355.8 762.8,376.7 711.6,379.1 625.6,469.8 609.3,711.6 		"/>
		<polygon class="st0" points="693,711.6 725.6,523.3 665.1,451.2 695.3,523.3 627.9,711.6 		"/>
		<polygon class="st0" points="174.4,711.6 130.2,381.4 174.4,255.8 211.6,148.8 284.9,123.3 207.6,123.3 130.2,246.5 88.4,383.7 
			88.4,711.6 		"/>
		<polygon class="st0" points="67.4,711.6 116.3,533.7 34.9,417.4 75.6,533.7 0,711.6 		"/>
		<polygon class="st0" points="762.8,711.6 741.9,564.5 725.6,711.6 		"/>
	</g>
</g>
<g id="Layer_2">
	<polygon class="st1" points="604.7,711.6 497.7,344.2 525.6,227.9 458.1,341.9 516.3,711.6 	"/>
	<polygon class="st1" points="309.3,711.6 329.8,430.2 286,334.9 360.5,427.9 329.8,711.6 	"/>
	<polygon class="st1" points="414,711.6 397.7,246.5 414,148.8 376.7,246.5 348.8,711.6 360.5,711.6 388.4,711.6 	"/>
	<polygon class="st1" points="286,711.6 225.6,448.8 104.7,355.8 53.5,376.7 104.7,379.1 190.7,469.8 207,711.6 	"/>
	<polygon class="st1" points="123.3,711.6 90.7,523.3 151.2,451.2 120.9,523.3 188.4,711.6 	"/>
	<polygon class="st1" points="641.9,711.6 686,381.4 641.9,255.8 604.7,148.8 531.4,123.3 608.7,123.3 686,246.5 727.9,383.7 
		727.9,711.6 	"/>
	<polygon class="st1" points="748.8,711.6 700,533.7 781.4,417.4 740.7,533.7 816.3,711.6 	"/>
	<polygon class="st1" points="53.5,711.6 74.4,564.5 90.7,711.6 	"/>
	<polygon class="st2" points="693,711.6 586,344.2 613.9,227.9 546.5,341.9 604.6,711.6 	"/>
	<polygon class="st2" points="397.6,711.6 418.1,430.2 374.4,334.9 448.8,427.9 418.1,711.6 	"/>
	<polygon class="st2" points="502.3,711.6 486,246.5 502.3,148.8 465.1,246.5 437.2,711.6 448.8,711.6 476.7,711.6 	"/>
	<polygon class="st2" points="374.4,711.6 313.9,448.8 193,355.8 141.8,376.7 193,379.1 279,469.8 295.3,711.6 	"/>
	<polygon class="st2" points="211.6,711.6 179,523.3 239.5,451.2 209.3,523.3 276.7,711.6 	"/>
	<polygon class="st2" points="457.5,711.6 413.3,381.4 457.5,255.8 494.7,148.8 568,123.3 490.7,123.3 413.3,246.5 371.5,383.7 
		371.5,711.6 	"/>
	<polygon class="st2" points="837.2,711.6 788.3,533.7 869.7,417.4 829,533.7 904.6,711.6 	"/>
	<polygon class="st2" points="141.8,711.6 162.7,564.5 179,711.6 	"/>
</g>
</svg>
