<?xml version="1.0" encoding="utf-8"?>
<!-- Generator: Adobe Illustrator 19.1.0, SVG Export Plug-In . SVG Version: 6.00 Build 0)  -->
<svg version="1.1" id="Layer_1" xmlns="http://www.w3.org/2000/svg" xmlns:xlink="http://www.w3.org/1999/xlink" x="0px" y="0px"
	 viewBox="0 0 201 76.5" style="enable-background:new 0 0 201 76.5;" xml:space="preserve">
<style type="text/css">
	.st0{fill:#FFFFFF;}
	.st1{clip-path:url(#SVGID_2_);fill:#E0F0E6;}
</style>
<g>
	<polygon class="st0" points="37.5,36 75,0 133.5,0 183,36 201,36 201,57 183,76.5 150,58.5 119.2,61.5 114,76.5 66,76.5 37.5,57 
		0,51 	"/>
	<g>
		<defs>
			<polygon id="SVGID_1_" points="37.5,36 75,0 133.5,0 183,36 201,36 201,57 183,76.5 150,58.5 119.2,61.5 114,76.5 66,76.5 
				37.5,57 0,51 			"/>
		</defs>
		<clipPath id="SVGID_2_">
			<use xlink:href="#SVGID_1_"  style="overflow:visible;"/>
		</clipPath>
		<polygon class="st1" points="208.5,28.5 183,49.5 160.5,28.5 124.5,28.5 114,9 78,9 58.5,38.2 0,51 55.5,-16.5 145.5,-25.5 201,0 
					"/>
	</g>
</g>
</svg>
