<?xml version="1.0" encoding="utf-8"?>
<!-- Generator: Adobe Illustrator 19.1.0, SVG Export Plug-In . SVG Version: 6.00 Build 0)  -->
<svg version="1.1" id="Layer_1" xmlns="http://www.w3.org/2000/svg" xmlns:xlink="http://www.w3.org/1999/xlink" x="0px" y="0px"
	 viewBox="0 0 615 202.5" style="enable-background:new 0 0 615 202.5;" xml:space="preserve">
<style type="text/css">
	.st0{fill:#FFFFFF;}
	.st1{clip-path:url(#SVGID_2_);fill:#FFECD5;}
</style>
<g>
	<polygon class="st0" points="76.5,39 135,0 205.5,0 270,39 397.5,61.5 469.5,114 615,136.5 559.5,172.5 468,202.5 373.5,169.5 
		259.5,187.5 192,186 99,187.5 59.1,166.5 19.5,150 0,112.5 45,85.5 	"/>
	<g>
		<defs>
			<polygon id="SVGID_1_" points="76.5,39 135,0 205.5,0 270,39 397.5,61.5 469.5,114 615,136.5 559.5,172.5 468,202.5 373.5,169.5 
				259.5,187.5 192,186 99,187.5 59.1,166.5 19.5,150 0,112.5 45,85.5 			"/>
		</defs>
		<clipPath id="SVGID_2_">
			<use xlink:href="#SVGID_1_"  style="overflow:visible;"/>
		</clipPath>
		<polygon class="st1" points="48,0 0,85.5 25.5,101.2 97.5,69 151.5,32.9 217.3,47 276.7,81 357,117 427.5,108 538.5,150 
			615,145.5 634.5,123 446.2,58.5 210.7,-18 		"/>
	</g>
</g>
</svg>
