<?xml version="1.0" encoding="utf-8"?>
<!-- Generator: Adobe Illustrator 19.1.0, SVG Export Plug-In . SVG Version: 6.00 Build 0)  -->
<svg version="1.1" id="Layer_1" xmlns="http://www.w3.org/2000/svg" xmlns:xlink="http://www.w3.org/1999/xlink" x="0px" y="0px"
	 viewBox="0 0 762 264" style="enable-background:new 0 0 762 264;" xml:space="preserve">
<style type="text/css">
	.st0{fill:#FFFFFF;}
	.st1{clip-path:url(#SVGID_2_);fill:#F7E1ED;}
</style>
<g>
	<polygon class="st0" points="111,55.5 181.5,18 250.5,30 304.5,0 418.5,9 505.5,61.5 559.5,99 713.3,99 727.5,145.5 745.5,167.4 
		762,187.5 762,234 723,234 634.5,243 499.5,256.5 370.5,229.5 286.5,240 217.5,264 111,250.5 78,222 46.6,199.5 9,201 0,166.5 
		82.5,132 86.4,121.5 96.6,94.2 	"/>
	<g>
		<defs>
			<polygon id="SVGID_1_" points="111,55.5 181.5,18 250.5,30 304.5,0 418.5,9 505.5,61.5 559.5,99 713.3,99 727.5,145.5 762,187.5 
				762,234 723,234 634.5,243 499.5,256.5 370.5,229.5 286.5,240 217.5,264 111,250.5 78,222 46.6,199.5 9,201 0,166.5 82.5,132 			
				"/>
		</defs>
		<clipPath id="SVGID_2_">
			<use xlink:href="#SVGID_1_"  style="overflow:visible;"/>
		</clipPath>
		<polygon class="st1" points="771,156 714.6,168 685.5,132 642,150 550.5,111 465,90 465,69 423,75 411,52.5 271.5,30 288,70.5 
			169.5,43.5 60,106.5 118.5,-76.5 562.5,-51 771,100.5 		"/>
	</g>
</g>
</svg>
