<?xml version="1.0" encoding="utf-8"?>
<!-- Generator: Adobe Illustrator 19.1.0, SVG Export Plug-In . SVG Version: 6.00 Build 0)  -->
<svg version="1.1" id="Layer_1" xmlns="http://www.w3.org/2000/svg" xmlns:xlink="http://www.w3.org/1999/xlink" x="0px" y="0px"
	 viewBox="0 0 495 135" style="enable-background:new 0 0 495 135;" xml:space="preserve">
<style type="text/css">
	.st0{fill:#FFFFFF;}
	.st1{clip-path:url(#SVGID_2_);fill:#D6C6E1;}
</style>
<g>
	<polygon class="st0" points="9,82.4 183,28.5 223.5,0 288,0 346.5,24 381,41.2 456,30 495,64.5 495,97.6 433.5,108 316.5,123 
		166.5,135 139.5,106.5 106.5,112.5 34.5,109.5 0,106.5 0,82.4 	"/>
	<g>
		<defs>
			<polygon id="SVGID_1_" points="9,82.4 183,28.5 223.5,0 288,0 346.5,24 381,41.2 456,30 495,64.5 495,97.6 433.5,108 316.5,123 
				166.5,135 139.5,106.5 106.5,112.5 34.5,109.5 0,106.5 0,82.4 			"/>
		</defs>
		<clipPath id="SVGID_2_">
			<use xlink:href="#SVGID_1_"  style="overflow:visible;"/>
		</clipPath>
		<polygon class="st1" points="-27,75 33,88.5 43.5,97.6 70.5,97.6 99,67.5 153,49.5 198,57 247.5,12 286.5,12 381,49.5 481.5,30 
			372,-24 135,-18 -13.5,25.5 		"/>
	</g>
</g>
</svg>
