<?xml version="1.0" encoding="utf-8"?>
<!-- Generator: Adobe Illustrator 19.1.0, SVG Export Plug-In . SVG Version: 6.00 Build 0)  -->
<svg version="1.1" id="Layer_1" xmlns="http://www.w3.org/2000/svg" xmlns:xlink="http://www.w3.org/1999/xlink" x="0px" y="0px"
	 viewBox="0 0 429 103.5" style="enable-background:new 0 0 429 103.5;" xml:space="preserve">
<style type="text/css">
	.st0{fill:#FFFFFF;}
	.st1{clip-path:url(#SVGID_2_);fill:#F4F2AB;}
</style>
<g>
	<polygon class="st0" points="80.4,34.5 138,0 288,17.2 351,17.2 408,42 429,78 385.5,103.5 297,88.5 205.5,79.5 159,94.5 40.5,81 
		0,64.5 25.5,34.5 	"/>
	<g>
		<defs>
			<polygon id="SVGID_1_" points="80.4,34.5 138,0 288,17.2 351,17.2 408,42 429,78 385.5,103.5 297,88.5 205.5,79.5 159,94.5 
				40.5,81 0,64.5 25.5,34.5 			"/>
		</defs>
		<clipPath id="SVGID_2_">
			<use xlink:href="#SVGID_1_"  style="overflow:visible;"/>
		</clipPath>
		<polygon class="st1" points="-16.5,66 81.7,43.5 121.5,43.5 141,28.5 148.5,12 289.5,24 346.5,39 378,39 393,66 411,66 429,96 
			457.5,73.5 411,-13.5 112.5,-36 -16.5,0 		"/>
	</g>
</g>
</svg>
